<svg width="24" height="21" viewBox="0 0 24 21" fill="none" xmlns="http://www.w3.org/2000/svg">
<path d="M5.03177 7.0375L7.09767 6.76057L6.29047 8.79978L5.03177 7.0375Z" fill="url(#paint0_linear_2_27)"/>
<path d="M6.23813 8.38911L5.38569 7.19562L6.7848 7.00807L6.23813 8.38911Z" stroke="#1F84FB" stroke-opacity="0.21" stroke-width="0.4"/>
<path d="M5.00918 11.746L6.30131 10.0113L7.06935 12.0675L5.00918 11.746Z" fill="url(#paint1_linear_2_27)"/>
<path d="M6.7611 11.8133L5.36592 11.5956L6.24097 10.4208L6.7611 11.8133Z" stroke="#1F84FB" stroke-opacity="0.21" stroke-width="0.4"/>
<path d="M7.33028 15.1034L7.67868 12.9223L9.28236 14.3334L7.33028 15.1034Z" fill="url(#paint2_linear_2_27)"/>
<path d="M8.90079 14.2636L7.5783 14.7852L7.81433 13.3076L8.90079 14.2636Z" stroke="#1F84FB" stroke-opacity="0.21" stroke-width="0.4"/>
<path d="M10.9901 16.8278L10.2016 14.7803L12.2648 15.0786L10.9901 16.8278Z" fill="url(#paint3_linear_2_27)"/>
<path d="M11.9062 15.2288L11.0432 16.413L10.5094 15.0269L11.9062 15.2288Z" stroke="#1F84FB" stroke-opacity="0.21" stroke-width="0.4"/>
<path d="M15.1495 16.2277L13.4496 14.9501L15.341 14.0248L15.1495 16.2277Z" fill="url(#paint4_linear_2_27)"/>
<path d="M15.1153 14.3576L14.9856 15.8496L13.8343 14.9843L15.1153 14.3576Z" stroke="#1F84FB" stroke-opacity="0.21" stroke-width="0.4"/>
<path d="M17.9737 13.6317L15.8995 13.4373L17.0951 11.6261L17.9737 13.6317Z" fill="url(#paint5_linear_2_27)"/>
<path d="M17.0626 12.0377L17.6578 13.3963L16.2527 13.2646L17.0626 12.0377Z" stroke="#1F84FB" stroke-opacity="0.21" stroke-width="0.4"/>
<ellipse cx="11.779" cy="9.31615" rx="4.52594" ry="4.80834" fill="url(#paint6_linear_2_27)"/>
<g filter="url(#filter0_d_2_27)">
<path d="M8.24572 2.36452C18.3327 -0.646427 20.9547 10.5938 18.6455 12.1464C13.8418 7.5345 -1.84128 5.37548 8.24572 2.36452Z" fill="url(#paint7_linear_2_27)" shape-rendering="crispEdges"/>
</g>
<defs>
<filter id="filter0_d_2_27" x="0.928192" y="1.85458" width="22.4984" height="18.2918" filterUnits="userSpaceOnUse" color-interpolation-filters="sRGB">
<feFlood flood-opacity="0" result="BackgroundImageFix"/>
<feColorMatrix in="SourceAlpha" type="matrix" values="0 0 0 0 0 0 0 0 0 0 0 0 0 0 0 0 0 0 127 0" result="hardAlpha"/>
<feOffset dy="4"/>
<feGaussianBlur stdDeviation="2"/>
<feComposite in2="hardAlpha" operator="out"/>
<feColorMatrix type="matrix" values="0 0 0 0 0 0 0 0 0 0 0 0 0 0 0 0 0 0 0.1 0"/>
<feBlend mode="normal" in2="BackgroundImageFix" result="effect1_dropShadow_2_27"/>
<feBlend mode="normal" in="SourceGraphic" in2="effect1_dropShadow_2_27" result="shape"/>
</filter>
<linearGradient id="paint0_linear_2_27" x1="5.03177" y1="7.0375" x2="7.2868" y2="7.93013" gradientUnits="userSpaceOnUse">
<stop stop-color="#1B9FFF"/>
<stop offset="1" stop-color="#7ABFFF" stop-opacity="0.7"/>
</linearGradient>
<linearGradient id="paint1_linear_2_27" x1="5.00918" y1="11.746" x2="7.27926" y2="10.8981" gradientUnits="userSpaceOnUse">
<stop stop-color="#1B9FFF"/>
<stop offset="1" stop-color="#7ABFFF" stop-opacity="0.7"/>
</linearGradient>
<linearGradient id="paint2_linear_2_27" x1="7.33028" y1="15.1034" x2="8.97518" y2="13.2339" gradientUnits="userSpaceOnUse">
<stop stop-color="#1B9FFF"/>
<stop offset="1" stop-color="#7ABFFF" stop-opacity="0.7"/>
</linearGradient>
<linearGradient id="paint3_linear_2_27" x1="10.9901" y1="16.8278" x2="11.3551" y2="14.3026" gradientUnits="userSpaceOnUse">
<stop stop-color="#1B9FFF"/>
<stop offset="1" stop-color="#7ABFFF" stop-opacity="0.7"/>
</linearGradient>
<linearGradient id="paint4_linear_2_27" x1="15.1495" y1="16.2277" x2="14.0395" y2="13.9585" gradientUnits="userSpaceOnUse">
<stop stop-color="#1B9FFF"/>
<stop offset="1" stop-color="#7ABFFF" stop-opacity="0.7"/>
</linearGradient>
<linearGradient id="paint5_linear_2_27" x1="17.9737" y1="13.6317" x2="15.9282" y2="12.2815" gradientUnits="userSpaceOnUse">
<stop stop-color="#1B9FFF"/>
<stop offset="1" stop-color="#7ABFFF" stop-opacity="0.7"/>
</linearGradient>
<linearGradient id="paint6_linear_2_27" x1="11.779" y1="4.50781" x2="11.779" y2="14.1245" gradientUnits="userSpaceOnUse">
<stop stop-color="#1F84FB"/>
<stop offset="0.424" stop-color="#20F2FF" stop-opacity="0.47"/>
<stop offset="1" stop-color="#0587FF"/>
</linearGradient>
<linearGradient id="paint7_linear_2_27" x1="14.9064" y1="2.63361" x2="12.7153" y2="10.4932" gradientUnits="userSpaceOnUse">
<stop stop-color="#577B83"/>
<stop offset="0.555" stop-color="#8FE1F3" stop-opacity="0.94"/>
<stop offset="1" stop-color="#D9EAED" stop-opacity="0.69"/>
</linearGradient>
</defs>
</svg>
